<?xml version="1.0" standalone="no"?><!DOCTYPE svg PUBLIC "-//W3C//DTD SVG 1.1//EN" "http://www.w3.org/Graphics/SVG/1.1/DTD/svg11.dtd"><svg t="1673351722302" class="icon" viewBox="0 0 1024 1024" version="1.1" xmlns="http://www.w3.org/2000/svg" p-id="1022" xmlns:xlink="http://www.w3.org/1999/xlink" width="200" height="200"><path d="M657.066667 196.266667h49.777777a4.266667 4.266667 0 0 0 1.422223-2.844445l-24.177778-56.888889h-2.844445l-27.022222 56.888889a2.844444 2.844444 0 0 0 2.844445 2.844445zM603.022222 211.911111l-58.311111-24.177778-2.844444 2.844445 22.755555 58.311111c0 1.422222 1.422222 2.844444 2.844445 1.422222l35.555555-35.555555c1.422222 0 1.422222-1.422222 0-2.844445zM715.377778 237.511111a132.266667 132.266667 0 0 0-41.244445-7.111111 105.244444 105.244444 0 0 0-86.755555 66.844444 123.733333 123.733333 0 0 1 49.777778-9.955555 108.088889 108.088889 0 0 1 29.866666 4.266667l49.777778-46.933334a5.688889 5.688889 0 0 0-1.422222-7.111111z" fill="#F7DF4A" p-id="1023"></path><path d="M880.355556 329.955556L812.088889 298.666667c-1.422222-1.422222-2.844444 0-2.844445 1.422222v59.733333a2.844444 2.844444 0 0 0 2.844445 2.844445l69.688889-29.866667s0-2.844444-1.422222-2.844444zM790.755556 260.266667h4.266666l28.444445-69.688889c1.422222-1.422222-1.422222-4.266667-2.844445-2.844445l-69.688889 27.022223c-1.422222 0-2.844444 2.844444-1.422222 2.844444zM790.755556 402.488889l-11.377778 9.955555a39.822222 39.822222 0 0 1 1.422222 12.8l25.6 9.955556-12.8-32.711111c0-1.422222-1.422222-1.422222-2.844444 0zM756.622222 248.888889a4.266667 4.266667 0 0 0-5.688889 0L696.888889 301.511111a139.377778 139.377778 0 0 1 65.422222 59.733333 109.511111 109.511111 0 0 1 9.955556 22.755556 91.022222 91.022222 0 0 0 15.644444-42.666667 113.777778 113.777778 0 0 0-31.288889-92.444444z" fill="#F7B531" p-id="1024"></path><path d="M283.022222 615.822222h473.6a79.644444 79.644444 0 0 0 79.644445-88.177778 81.066667 81.066667 0 0 0-82.488889-71.111111h-9.955556a105.244444 105.244444 0 0 0-11.377778-78.222222 113.777778 113.777778 0 0 0-65.422222-52.622222 108.088889 108.088889 0 0 0-29.866666-4.266667 142.222222 142.222222 0 0 0-42.666667 8.533334L280.177778 608.711111c-2.844444 1.422222-1.422222 7.111111 2.844444 7.111111z" fill="#A1C6E6" p-id="1025"></path><path d="M422.4 247.466667a133.688889 133.688889 0 0 0-132.266667 122.311111v24.177778h-24.177777l-24.177778 2.844444h-1.422222a100.977778 100.977778 0 0 0-76.8 86.755556 92.444444 92.444444 0 0 0 65.422222 91.022222h2.844444l7.111111-2.844445 290.133334-256a7.111111 7.111111 0 0 0 1.422222-11.377777 126.577778 126.577778 0 0 0-108.088889-56.888889z" fill="#C3D6E6" p-id="1026"></path><path d="M499.2 718.222222H526.222222v107.377778h-27.022222zM678.4 706.844444h27.022222v54.613334h-27.022222z" fill="#A1C6E6" p-id="1027"></path><path d="M374.044444 661.333333h27.022223v107.377778h-27.022223zM268.8 661.333333h27.022222v51.626667h-27.022222z" fill="#C3D6E6" p-id="1028"></path><path d="M603.022222 681.244444h27.022222v107.377778h-27.022222z" fill="#A1C6E6" p-id="1029"></path></svg>